<svg xmlns="http://www.w3.org/2000/svg" width="28" height="28" viewBox="0 0 28 28">
    <g fill="#6CCAAD" fill-rule="nonzero">
        <path d="M4.084 4.1c-5.445 5.443-5.445 14.305 0 19.8 5.446 5.493 14.315 5.441 19.812 0 5.498-5.443 5.446-14.305 0-19.8-5.445-5.493-14.314-5.441-19.812 0z" opacity=".194"/>
        <path d="M21.303 11.046l-8.039 8.085c-.622.622-1.608.622-2.178 0l-3.682-3.68c-.623-.622-.623-1.606 0-2.177.622-.622 1.607-.622 2.178 0l2.541 2.54 6.95-6.945c.622-.622 1.608-.622 2.178 0 .674.622.674 1.607.052 2.177z"/>
    </g>
</svg>
