<svg xmlns="http://www.w3.org/2000/svg" width="182" height="32" viewBox="0 0 182 32">
    <defs>
        <linearGradient id="a" x1="100%" x2="5.925%" y1="50%" y2="50%">
            <stop offset="0%" stop-color="#FFF"/>
            <stop offset="100%" stop-color="#FFF" stop-opacity=".296"/>
        </linearGradient>
    </defs>
    <path fill="url(#a)" fill-rule="nonzero" d="M16.703 25l-15-15.042a5.748 5.748 0 0 1 .146-8.307c2.408-2.255 6.246-2.192 8.573.141l18.733 18.785a6.225 6.225 0 0 1 0 8.846L10.422 48.208c-2.327 2.333-6.165 2.396-8.573.141a5.748 5.748 0 0 1-.146-8.307l15-15.042zm38 0l-15-15.042a5.748 5.748 0 0 1 .146-8.307c2.408-2.255 6.246-2.192 8.573.141l18.733 18.785a6.225 6.225 0 0 1 0 8.846L48.422 48.208c-2.327 2.333-6.165 2.396-8.573.141a5.748 5.748 0 0 1-.146-8.307l15-15.042zm38 0l-15-15.042a5.748 5.748 0 0 1 .146-8.307c2.408-2.255 6.246-2.192 8.573.141l18.733 18.785a6.225 6.225 0 0 1 0 8.846L86.422 48.208c-2.327 2.333-6.165 2.396-8.573.141a5.748 5.748 0 0 1-.146-8.307l15-15.042zm38 0l-15-15.042a5.748 5.748 0 0 1 .146-8.307c2.408-2.255 6.246-2.192 8.573.141l18.733 18.785a6.225 6.225 0 0 1 0 8.846l-18.733 18.785c-2.327 2.333-6.165 2.396-8.573.141a5.748 5.748 0 0 1-.146-8.307l15-15.042zm38 0l-15-15.042a5.748 5.748 0 0 1 .146-8.307c2.408-2.255 6.246-2.192 8.573.141l18.733 18.785a6.225 6.225 0 0 1 0 8.846l-18.733 18.785c-2.327 2.333-6.165 2.396-8.573.141a5.748 5.748 0 0 1-.146-8.307l15-15.042z" opacity=".4" transform="translate(-1 -9)"/>
</svg>
