<?xml version="1.0" encoding="UTF-8"?>
<svg width="1128px" height="124px" viewBox="0 0 1128 124" version="1.1" xmlns="http://www.w3.org/2000/svg" xmlns:xlink="http://www.w3.org/1999/xlink">
    <!-- Generator: Sketch 52.2 (67145) - http://www.bohemiancoding.com/sketch -->
    <title>Group 39 Copy 3</title>
    <desc>Created with Sketch.</desc>
    <defs>
        <rect id="path-1" x="0" y="0" width="1128" height="124"></rect>
        <path d="M25.6,0 L550.4,-3.55271368e-15 C564.53849,-6.14991208e-15 576,11.4615104 576,25.6 L576,288 L0,288 L-3.55271368e-15,25.6 C-5.28417928e-15,11.4615104 11.4615104,2.39134805e-14 25.6,2.13162821e-14 Z" id="path-3"></path>
        <linearGradient x1="100%" y1="50%" x2="-26.6381502%" y2="50%" id="linearGradient-5">
            <stop stop-color="#67A7FB" offset="0%"></stop>
            <stop stop-color="#536CFA" stop-opacity="0.81139606" offset="100%"></stop>
        </linearGradient>
    </defs>
    <g id="课程详情页-配图" stroke="none" stroke-width="1" fill="none" fill-rule="evenodd">
        <g id="Artboard-Copy-6" transform="translate(-102.000000, -284.000000)">
            <g id="Group-39-Copy-3" transform="translate(102.000000, 284.000000)">
                <mask id="mask-2" fill="white">
                    <use xlink:href="#path-1"></use>
                </mask>
                <use id="Mask" fill="#8845C0" xlink:href="#path-1"></use>
                <g opacity="0.5" mask="url(#mask-2)">
                    <g transform="translate(515.000000, -122.000000)">
                        <g id="Group-38" stroke="none" stroke-width="1" fill-rule="evenodd">
                            <g id="Group-36-Copy-5">
                                <g id="Rectangle-Copy-57-+-Rectangle-Copy-58-+-Rectangle-Copy-59-+-Rectangle-Copy-60-+-Rectangle-Copy-61-+-Oval-Copy-71-+-Oval-Copy-72-+-Oval-Copy-73-+-Oval-Copy-74-Mask">
                                    <mask id="mask-4" fill="white">
                                        <use xlink:href="#path-3"></use>
                                    </mask>
                                    <use id="Mask" fill="#8845C0" xlink:href="#path-3"></use>
                                    <path d="M356.129267,203.483875 L420.698455,203.483875 C425.258118,203.483875 428.954455,207.180212 428.954455,211.739875 L428.954455,288 L356.129267,288 C351.569604,288 347.873267,284.303663 347.873267,279.744 L347.873267,211.739875 C347.873267,207.180212 351.569604,203.483875 356.129267,203.483875 Z" id="Rectangle-Copy-57" fill="#FFFFFF" opacity="0.300000012" mask="url(#mask-4)"></path>
                                    <rect id="Rectangle-Copy-58" fill="#FFFFFF" opacity="0.300000012" mask="url(#mask-4)" x="165" y="159" width="111.314851" height="111.338182" rx="8.256"></rect>
                                    <polygon id="Rectangle-Copy-59" fill="url(#linearGradient-5)" opacity="0.300000012" mask="url(#mask-4)" transform="translate(114.552475, 238.523636) rotate(-270.000000) translate(-114.552475, -238.523636) " points="65.7888389 219.971161 163.316112 219.971161 163.316112 257.076112 65.7888389 257.076112"></polygon>
                                    <path d="M102.988587,140.523888 L144.668839,140.523888 L144.668839,177.628839 L102.988587,177.628839 C92.7423377,177.628839 84.4361116,169.322613 84.4361116,159.076364 L84.4361116,159.076364 C84.4361116,148.830114 92.7423377,140.523888 102.988587,140.523888 Z" id="Rectangle-Copy-60" fill="#000000" opacity="0.300000012" mask="url(#mask-4)" transform="translate(114.552475, 159.076364) rotate(-270.000000) translate(-114.552475, -159.076364) "></path>
                                    <polygon id="Rectangle-Copy-61" fill="url(#linearGradient-5)" opacity="0.300000012" mask="url(#mask-4)" transform="translate(456.439604, 235.080000) rotate(-270.000000) translate(-456.439604, -235.080000) " points="403.519604 207.594851 509.359604 207.594851 509.359604 262.565149 403.519604 262.565149"></polygon>
                                    <ellipse id="Oval-Copy-71" fill="#AB7DD3" mask="url(#mask-4)" cx="114.552475" cy="189.116364" rx="18.5524752" ry="18.5563636"></ellipse>
                                    <ellipse id="Oval-Copy-72" fill="#663491" mask="url(#mask-4)" cx="457.126733" cy="152.607273" rx="46.0376238" ry="46.0472727"></ellipse>
                                    <ellipse id="Oval-Copy-73" fill="#FFFFFF" opacity="0.300000012" mask="url(#mask-4)" cx="429.641584" cy="152.607273" rx="18.5524752" ry="18.5563636"></ellipse>
                                    <ellipse id="Oval-Copy-74" fill="#663491" mask="url(#mask-4)" cx="218.742574" cy="214.745455" rx="13.7425743" ry="13.7454545"></ellipse>
                                </g>
                                <path d="M379.2,203.2 L379.2,244.8 C379.2,249.218278 375.618278,252.8 371.2,252.8 L333.056,252.8 C328.496337,252.8 324.8,249.103663 324.8,244.544 L324.8,211.456 C324.8,206.896337 328.496337,203.2 333.056,203.2 L379.2,203.2 Z" id="Combined-Shape" fill="#663491"></path>
                            </g>
                            <g id="python-3" opacity="0" transform="translate(193.600000, 99.200000)">
                                <g id="Group-8">
                                    <path d="M113.90408,1.39743447 L121.067859,2.95013937 L126.87848,4.96865595 L131.574734,7.29771339 L135.156624,9.78204128 L137.86294,12.4216398 L139.852879,15.0612381 L141.126439,17.6232013 L141.922415,19.9522587 L142.240805,21.9707753 L142.4,23.5234802 L142.320402,24.5327385 L142.320402,65.989961 L141.922415,70.8809817 L140.887647,75.1509202 L139.216098,78.7221417 L137.146562,81.6722811 L134.758636,84.0789738 L132.131917,86.0198551 L129.346003,87.4949247 L126.560089,88.5818183 L123.933371,89.3581706 L121.545444,89.9016174 L119.475908,90.2121585 L117.80436,90.3674289 L70.2846283,90.3674289 L64.792398,90.7556051 L60.096143,91.8424987 L56.116266,93.550474 L52.8527669,95.6466257 L50.2260481,98.1309538 L48.0769145,100.848187 L46.4849636,103.643056 L45.2910005,106.515561 L44.4950252,109.232794 L43.9378424,111.717122 L43.6194521,113.813274 L43.4602571,115.443614 L43.4602571,139.2 L25.7100055,139.2 L24.0384572,138.967094 L21.8097262,138.423648 L19.2626047,137.492025 L16.4766909,136.09459 L13.6111794,134.076074 L10.745668,131.281205 L7.95975411,127.709983 L5.41263269,123.129504 L3.18390168,117.462131 L1.51235333,110.630229 L0.39798764,102.478528 L0,92.9293921 L0.477585243,83.4578919 L1.75114595,75.383826 L3.66148692,68.6295594 L6.20860816,63.1174568 L9.07411962,58.6922477 L12.2580213,55.2762968 L15.601118,52.7143336 L18.9442147,50.8510876 L22.1281162,49.6089236 L24.9936277,48.8325711 L27.5407491,48.4443949 L29.45109,48.3667596 L30.7246506,48.3667596 L31.2022358,48.4443949 L96.1538289,48.4443949 L96.1538289,42.0006693 L49.6688653,42.0006693 L49.5892677,20.650976 L49.4300726,17.7784719 L49.8280603,15.1388734 L50.7036334,12.7321806 L52.0567915,10.5583938 L54.0467301,8.53987724 L56.5142537,6.7542666 L59.5389603,5.20156169 L63.0412521,3.80412722 L67.1007266,2.6395985 L71.717384,1.70797552 L76.8116265,0.931622979 L82.463052,0.465811489 L88.5920626,0.155270436 L95.278256,0 L105.387144,0.38817618 L113.90408,1.39743447 Z M63.7576299,16.7692136 L61.9268866,19.3311768 L61.2901061,22.5142219 L61.9268866,25.6972672 L63.7576299,28.3368655 L66.3843488,30.0448411 L69.6478479,30.7435583 L72.9113472,30.0448411 L75.538066,28.3368655 L77.3688094,25.6972672 L78.0055896,22.5142219 L77.3688094,19.3311768 L75.538066,16.7692136 L72.9113472,15.0612381 L69.6478479,14.3625209 L66.3843488,15.0612381 L63.7576299,16.7692136 Z" id="Shape" fill="#91B4FF" fill-rule="nonzero"></path>
                                    <path d="M164.761543,48.3105409 L166.990274,48.7763524 L169.537395,49.7079753 L172.323309,51.1054098 L175.188821,53.2015615 L178.054332,55.9187953 L180.840246,59.5676519 L183.387367,64.1481315 L185.616098,69.8155047 L187.287647,76.6474066 L188.402012,84.7214723 L188.8,94.2706079 L188.322415,103.819743 L187.048854,111.893809 L185.138513,118.570441 L182.591392,124.082543 L179.72588,128.507752 L176.541979,132.001339 L173.198882,134.563302 L169.855785,136.426548 L166.671884,137.668712 L163.806372,138.367429 L161.259251,138.755605 L159.34891,138.910876 L158.075349,138.83324 L92.6461711,138.83324 L92.6461711,145.199331 L139.131135,145.199331 L139.210732,166.626659 L139.369927,169.421528 L138.97194,172.061127 L138.096367,174.467819 L136.743209,176.719241 L134.75327,178.660123 L132.285746,180.523369 L129.26104,182.076074 L125.758748,183.395873 L121.699273,184.560401 L117.082616,185.56966 L111.988373,186.268377 L106.336948,186.811824 L100.207937,187.122365 L93.521744,187.2 L83.4128563,186.889459 L74.8959196,185.802566 L67.7321409,184.249861 L61.9215204,182.308979 L57.2252656,179.979922 L53.6433762,177.417959 L50.9370598,174.77836 L48.9471214,172.138762 L47.6735607,169.576799 L46.8775852,167.247741 L46.5591952,165.30686 L46.4,163.754155 L46.4795976,162.744897 L46.4795976,121.287674 L46.8775852,116.319018 L47.9123533,112.126715 L49.5839017,108.555494 L51.6534377,105.605354 L54.0413639,103.121026 L56.6680827,101.25778 L59.4539968,99.7050753 L62.2399106,98.6181817 L64.8666295,97.8418294 L67.2545557,97.3760179 L69.3240917,97.0654768 L70.99564,96.9102064 L72.0304081,96.8325711 L118.515372,96.8325711 L124.007602,96.4443949 L128.703857,95.3575013 L132.683734,93.7271611 L135.947233,91.5533743 L138.573952,89.0690462 L140.723085,86.3518126 L142.315036,83.5569436 L143.509,80.7620747 L144.304975,78.0448411 L144.862158,75.560513 L145.180548,73.3867262 L145.339743,71.756386 L145.339743,48 L161.975629,48 L163.089994,48.0776351 L164.761543,48.3105409 Z M113.261934,158.94077 L111.431191,161.502733 L110.79441,164.685778 L111.431191,167.868823 L113.261934,170.430786 L115.888653,172.216397 L119.152152,172.837479 L122.415651,172.216397 L125.04237,170.430786 L126.873113,167.868823 L127.509894,164.685778 L126.873113,161.502733 L125.04237,158.94077 L122.415651,157.155159 L119.152152,156.534077 L115.888653,157.155159 L113.261934,158.94077 Z" id="Shape" fill="#91B4FF" fill-rule="nonzero"></path>
                                    <rect id="Rectangle" fill="#585ABA" x="17.6" y="64" width="153.6" height="59.2" rx="19.2"></rect>
                                    <text id="Python" font-family="MicrosoftYaHeiUI-Bold, Microsoft YaHei UI" font-size="35.2" font-weight="bold" fill="#FFFFFF">
                                        <tspan x="32" y="106.4">Python</tspan>
                                    </text>
                                </g>
                            </g>
                            <circle id="Oval" fill="#A472CF" cx="59" cy="162" r="8"></circle>
                            <path d="M59.2,163 L59.2,183.154959 C59.2,186.689582 62.0653776,189.554959 65.6,189.554959 L112.337919,189.554959" id="Path-22" stroke="#A472CF" stroke-width="3.2"></path>
                            <path d="M430.4,83.2 L430.4,146.354959 C430.4,149.889582 433.265378,152.754959 436.8,152.754959 L466.960939,152.754959" id="Path-22-Copy" stroke="#A472CF" stroke-width="3.2" transform="translate(448.680470, 117.977480) scale(-1, 1) translate(-448.680470, -117.977480) "></path>
                            <circle id="Oval-Copy-31" fill="#663491" cx="114.4" cy="189.6" r="8.8"></circle>
                            <circle id="Oval-Copy-32" fill="#663491" cx="429.6" cy="152.8" r="8.8"></circle>
                        </g>
                        <path d="M116,98.5734352 L116,128.497954" id="Path-23" stroke="#663491" stroke-width="3.2"></path>
                    </g>
                </g>
            </g>
        </g>
    </g>
</svg>